<svg width="14" height="13" viewBox="0 0 14 13" fill="none" xmlns="http://www.w3.org/2000/svg">
<g clip-path="url(#clip0_2812_749)">
<path fill-rule="evenodd" clip-rule="evenodd" d="M12.4609 0.766934C12.6027 0.908743 12.6508 1.11925 12.5845 1.30854L8.93014 11.7496C8.85943 11.9516 8.67255 12.09 8.45867 12.0987C8.2448 12.1075 8.04727 11.9848 7.96034 11.7891L5.95368 7.27416L1.43869 5.2675C1.24309 5.18057 1.12037 4.98304 1.1291 4.76916C1.13782 4.55529 1.27622 4.36841 1.47826 4.2977L11.9193 0.643337C12.1086 0.577086 12.3191 0.625125 12.4609 0.766934ZM6.97186 6.99427L8.37965 10.1618L10.8433 3.12285L6.97186 6.99427ZM10.105 2.38455L3.06604 4.84819L6.23357 6.25598L10.105 2.38455Z" fill="white"/>
</g>
<defs>
<clipPath id="clip0_2812_749">
<rect width="12.5293" height="12.5293" fill="white" transform="translate(0.606445 0.092041)"/>
</clipPath>
</defs>
</svg>
