<svg width="24" height="23" viewBox="0 0 24 23" fill="none" xmlns="http://www.w3.org/2000/svg">
<path opacity="0.1" fill-rule="evenodd" clip-rule="evenodd" d="M0.85144 11.7743C0.85144 5.62346 5.8377 0.637207 11.9886 0.637207C18.1394 0.637207 23.1257 5.62346 23.1257 11.7743C23.1257 17.9252 18.1394 22.9114 11.9886 22.9114C5.8377 22.9114 0.85144 17.9252 0.85144 11.7743Z" fill="white"/>
<path fill-rule="evenodd" clip-rule="evenodd" d="M11.9891 5.83447C10.3759 5.83447 10.1734 5.84153 9.53986 5.87036C8.90751 5.89932 8.47588 5.99943 8.0982 6.14632C7.70753 6.29803 7.37614 6.50097 7.04598 6.83125C6.71558 7.16141 6.51263 7.49281 6.36042 7.88335C6.21317 8.26115 6.11293 8.6929 6.08447 9.325C6.05613 9.95859 6.04871 10.1612 6.04871 11.7743C6.04871 13.3875 6.05588 13.5893 6.08459 14.2229C6.11367 14.8553 6.21378 15.2869 6.36055 15.6646C6.51239 16.0552 6.71533 16.3866 7.04561 16.7168C7.37564 17.0472 7.70704 17.2506 8.09746 17.4023C8.47538 17.5492 8.90714 17.6493 9.53936 17.6783C10.1729 17.7071 10.3753 17.7142 11.9883 17.7142C13.6016 17.7142 13.8034 17.7071 14.437 17.6783C15.0694 17.6493 15.5015 17.5492 15.8794 17.4023C16.27 17.2506 16.6009 17.0472 16.9309 16.7168C17.2613 16.3866 17.4642 16.0552 17.6164 15.6647C17.7625 15.2869 17.8627 14.8551 17.8924 14.223C17.9209 13.5894 17.9283 13.3875 17.9283 11.7743C17.9283 10.1612 17.9209 9.95871 17.8924 9.32513C17.8627 8.69278 17.7625 8.26115 17.6164 7.88348C17.4642 7.49281 17.2613 7.16141 16.9309 6.83125C16.6005 6.50085 16.2701 6.29791 15.879 6.14632C15.5004 5.99943 15.0685 5.89932 14.4362 5.87036C13.8026 5.84153 13.6009 5.83447 11.9872 5.83447H11.9891ZM11.4562 6.90487C11.6143 6.90462 11.7908 6.90487 11.989 6.90487C13.575 6.90487 13.7629 6.91056 14.3892 6.93902C14.9684 6.9655 15.2827 7.06227 15.4921 7.14358C15.7693 7.25124 15.9669 7.37993 16.1746 7.58783C16.3825 7.79572 16.5112 7.99372 16.6191 8.27091C16.7004 8.48004 16.7973 8.79436 16.8237 9.3735C16.8522 9.99966 16.8583 10.1878 16.8583 11.773C16.8583 13.3581 16.8522 13.5462 16.8237 14.1724C16.7972 14.7515 16.7004 15.0659 16.6191 15.275C16.5115 15.5522 16.3825 15.7496 16.1746 15.9573C15.9668 16.1652 15.7694 16.2939 15.4921 16.4016C15.2829 16.4833 14.9684 16.5798 14.3892 16.6063C13.7631 16.6347 13.575 16.6409 11.989 16.6409C10.403 16.6409 10.215 16.6347 9.58883 16.6063C9.0097 16.5795 8.69538 16.4828 8.48588 16.4015C8.20868 16.2938 8.01069 16.1651 7.80279 15.9572C7.5949 15.7493 7.4662 15.5518 7.35829 15.2745C7.27699 15.0654 7.1801 14.751 7.15374 14.1719C7.12528 13.5457 7.11959 13.3577 7.11959 11.7715C7.11959 10.1853 7.12528 9.99817 7.15374 9.37201C7.18022 8.79287 7.27699 8.47856 7.35829 8.26918C7.46595 7.99198 7.5949 7.79399 7.80279 7.58609C8.01069 7.3782 8.20868 7.2495 8.48588 7.1416C8.69526 7.05992 9.0097 6.9634 9.58883 6.93679C10.1368 6.91204 10.3491 6.90462 11.4562 6.90338V6.90487ZM15.1597 7.89113C14.7662 7.89113 14.4469 8.21003 14.4469 8.60367C14.4469 8.99718 14.7662 9.31645 15.1597 9.31645C15.5532 9.31645 15.8725 8.99718 15.8725 8.60367C15.8725 8.21015 15.5532 7.89113 15.1597 7.89113ZM11.9891 8.72395C10.3045 8.72395 8.9387 10.0897 8.9387 11.7743C8.9387 13.4589 10.3045 14.8241 11.9891 14.8241C13.6736 14.8241 15.0389 13.4589 15.0389 11.7743C15.0389 10.0897 13.6736 8.72395 11.9891 8.72395ZM11.989 9.79436C13.0825 9.79436 13.969 10.6808 13.969 11.7743C13.969 12.8677 13.0825 13.7543 11.989 13.7543C10.8955 13.7543 10.0091 12.8677 10.0091 11.7743C10.0091 10.6808 10.8955 9.79436 11.989 9.79436Z" fill="white"/>
</svg>
